<?xml version="1.0" standalone="no"?>
<!DOCTYPE svg PUBLIC "-//W3C//DTD SVG 20010904//EN"
 "http://www.w3.org/TR/2001/REC-SVG-20010904/DTD/svg10.dtd">
<svg version="1.0" xmlns="http://www.w3.org/2000/svg"
 width="3507.000000pt" height="3507.000000pt" viewBox="0 0 3507.000000 3507.000000"
 preserveAspectRatio="xMidYMid meet">
<metadata>
Created by potrace 1.14, written by Peter Selinger 2001-2017
</metadata>
<g transform="translate(0.000000,3507.000000) scale(0.100000,-0.100000)"
fill="#000000" stroke="none">
<path d="M0 30640 c0 -3953 2 -4414 15 -4441 9 -16 13 -35 9 -41 -4 -7 -3 -8
4 -4 7 4 16 -3 22 -18 5 -14 21 -44 36 -68 15 -24 27 -49 27 -55 0 -7 3 -13 7
-13 7 0 33 -52 30 -59 -1 -2 2 -7 7 -10 5 -3 20 -21 32 -40 20 -27 21 -35 10
-43 -11 -8 -10 -9 4 -4 11 4 20 0 24 -12 3 -9 20 -35 37 -57 16 -22 27 -38 24
-35 -14 11 -176 159 -230 209 l-58 54 0 -12991 0 -12992 17535 0 17535 0 0
17515 0 17515 -17535 0 -17535 0 0 -4410z"/>
<path d="M46 26072 c-3 -5 1 -9 9 -9 8 0 12 4 9 9 -3 4 -7 8 -9 8 -2 0 -6 -4
-9 -8z"/>
</g>
</svg>
